solid OpenSCAD_Model
  facet normal 0.999507 0.031411 0
    outer loop
      vertex 0.05 0 0.25
      vertex 0.0499013 0.00313953 -0.25
      vertex 0.0499013 0.00313953 0.25
    endloop
  endfacet
  facet normal 0.999507 0.031411 0
    outer loop
      vertex 0.0499013 0.00313953 -0.25
      vertex 0.05 0 0.25
      vertex 0.05 0 -0.25
    endloop
  endfacet
  facet normal 0.995562 0.0941085 0
    outer loop
      vertex 0.0499013 0.00313953 0.25
      vertex 0.0496057 0.00626666 -0.25
      vertex 0.0496057 0.00626666 0.25
    endloop
  endfacet
  facet normal 0.995562 0.0941085 0
    outer loop
      vertex 0.0496057 0.00626666 -0.25
      vertex 0.0499013 0.00313953 0.25
      vertex 0.0499013 0.00313953 -0.25
    endloop
  endfacet
  facet normal 0.987688 0.156435 0
    outer loop
      vertex 0.0496057 0.00626666 0.25
      vertex 0.0491144 0.00936907 -0.25
      vertex 0.0491144 0.00936907 0.25
    endloop
  endfacet
  facet normal 0.987688 0.156435 0
    outer loop
      vertex 0.0491144 0.00936907 -0.25
      vertex 0.0496057 0.00626666 0.25
      vertex 0.0496057 0.00626666 -0.25
    endloop
  endfacet
  facet normal 0.975917 0.218143 0
    outer loop
      vertex 0.0491144 0.00936907 0.25
      vertex 0.0484292 0.0124345 -0.25
      vertex 0.0484292 0.0124345 0.25
    endloop
  endfacet
  facet normal 0.975917 0.218143 0
    outer loop
      vertex 0.0484292 0.0124345 -0.25
      vertex 0.0491144 0.00936907 0.25
      vertex 0.0491144 0.00936907 -0.25
    endloop
  endfacet
  facet normal 0.960294 0.278991 0
    outer loop
      vertex 0.0484292 0.0124345 0.25
      vertex 0.0475528 0.0154509 -0.25
      vertex 0.0475528 0.0154509 0.25
    endloop
  endfacet
  facet normal 0.960294 0.278991 0
    outer loop
      vertex 0.0475528 0.0154509 -0.25
      vertex 0.0484292 0.0124345 0.25
      vertex 0.0484292 0.0124345 -0.25
    endloop
  endfacet
  facet normal 0.940881 0.338737 0
    outer loop
      vertex 0.0475528 0.0154509 0.25
      vertex 0.0464888 0.0184062 -0.25
      vertex 0.0464888 0.0184062 0.25
    endloop
  endfacet
  facet normal 0.940881 0.338737 0
    outer loop
      vertex 0.0464888 0.0184062 -0.25
      vertex 0.0475528 0.0154509 0.25
      vertex 0.0475528 0.0154509 -0.25
    endloop
  endfacet
  facet normal 0.917755 0.397148 0
    outer loop
      vertex 0.0464888 0.0184062 0.25
      vertex 0.0452414 0.021289 -0.25
      vertex 0.0452414 0.021289 0.25
    endloop
  endfacet
  facet normal 0.917755 0.397148 0
    outer loop
      vertex 0.0452414 0.021289 -0.25
      vertex 0.0464888 0.0184062 0.25
      vertex 0.0464888 0.0184062 -0.25
    endloop
  endfacet
  facet normal 0.891007 0.453991 0
    outer loop
      vertex 0.0452414 0.021289 0.25
      vertex 0.0438153 0.0240877 -0.25
      vertex 0.0438153 0.0240877 0.25
    endloop
  endfacet
  facet normal 0.891007 0.453991 0
    outer loop
      vertex 0.0438153 0.0240877 -0.25
      vertex 0.0452414 0.021289 0.25
      vertex 0.0452414 0.021289 -0.25
    endloop
  endfacet
  facet normal 0.860742 0.509041 0
    outer loop
      vertex 0.0438153 0.0240877 0.25
      vertex 0.0422164 0.0267913 -0.25
      vertex 0.0422164 0.0267913 0.25
    endloop
  endfacet
  facet normal 0.860742 0.509041 0
    outer loop
      vertex 0.0422164 0.0267913 -0.25
      vertex 0.0438153 0.0240877 0.25
      vertex 0.0438153 0.0240877 -0.25
    endloop
  endfacet
  facet normal 0.82708 0.562084 0
    outer loop
      vertex 0.0422164 0.0267913 0.25
      vertex 0.0404508 0.0293893 -0.25
      vertex 0.0404508 0.0293893 0.25
    endloop
  endfacet
  facet normal 0.82708 0.562084 0
    outer loop
      vertex 0.0404508 0.0293893 -0.25
      vertex 0.0422164 0.0267913 0.25
      vertex 0.0422164 0.0267913 -0.25
    endloop
  endfacet
  facet normal 0.790155 0.612907 0
    outer loop
      vertex 0.0404508 0.0293893 0.25
      vertex 0.0385257 0.0318712 -0.25
      vertex 0.0385257 0.0318712 0.25
    endloop
  endfacet
  facet normal 0.790155 0.612907 0
    outer loop
      vertex 0.0385257 0.0318712 -0.25
      vertex 0.0404508 0.0293893 0.25
      vertex 0.0404508 0.0293893 -0.25
    endloop
  endfacet
  facet normal 0.750111 0.661312 0
    outer loop
      vertex 0.0385257 0.0318712 0.25
      vertex 0.0364484 0.0342274 -0.25
      vertex 0.0364484 0.0342274 0.25
    endloop
  endfacet
  facet normal 0.750111 0.661312 0
    outer loop
      vertex 0.0364484 0.0342274 -0.25
      vertex 0.0385257 0.0318712 0.25
      vertex 0.0385257 0.0318712 -0.25
    endloop
  endfacet
  facet normal 0.707107 0.707107 0
    outer loop
      vertex 0.0364484 0.0342274 0.25
      vertex 0.0342274 0.0364484 -0.25
      vertex 0.0342274 0.0364484 0.25
    endloop
  endfacet
  facet normal 0.707107 0.707107 0
    outer loop
      vertex 0.0342274 0.0364484 -0.25
      vertex 0.0364484 0.0342274 0.25
      vertex 0.0364484 0.0342274 -0.25
    endloop
  endfacet
  facet normal 0.661312 0.750111 -0
    outer loop
      vertex 0.0342274 0.0364484 -0.25
      vertex 0.0318712 0.0385257 0.25
      vertex 0.0342274 0.0364484 0.25
    endloop
  endfacet
  facet normal 0.661312 0.750111 0
    outer loop
      vertex 0.0318712 0.0385257 0.25
      vertex 0.0342274 0.0364484 -0.25
      vertex 0.0318712 0.0385257 -0.25
    endloop
  endfacet
  facet normal 0.612907 0.790155 -0
    outer loop
      vertex 0.0318712 0.0385257 -0.25
      vertex 0.0293893 0.0404508 0.25
      vertex 0.0318712 0.0385257 0.25
    endloop
  endfacet
  facet normal 0.612907 0.790155 0
    outer loop
      vertex 0.0293893 0.0404508 0.25
      vertex 0.0318712 0.0385257 -0.25
      vertex 0.0293893 0.0404508 -0.25
    endloop
  endfacet
  facet normal 0.562084 0.82708 -0
    outer loop
      vertex 0.0293893 0.0404508 -0.25
      vertex 0.0267913 0.0422164 0.25
      vertex 0.0293893 0.0404508 0.25
    endloop
  endfacet
  facet normal 0.562084 0.82708 0
    outer loop
      vertex 0.0267913 0.0422164 0.25
      vertex 0.0293893 0.0404508 -0.25
      vertex 0.0267913 0.0422164 -0.25
    endloop
  endfacet
  facet normal 0.509041 0.860742 -0
    outer loop
      vertex 0.0267913 0.0422164 -0.25
      vertex 0.0240877 0.0438153 0.25
      vertex 0.0267913 0.0422164 0.25
    endloop
  endfacet
  facet normal 0.509041 0.860742 0
    outer loop
      vertex 0.0240877 0.0438153 0.25
      vertex 0.0267913 0.0422164 -0.25
      vertex 0.0240877 0.0438153 -0.25
    endloop
  endfacet
  facet normal 0.453991 0.891007 -0
    outer loop
      vertex 0.0240877 0.0438153 -0.25
      vertex 0.021289 0.0452414 0.25
      vertex 0.0240877 0.0438153 0.25
    endloop
  endfacet
  facet normal 0.453991 0.891007 0
    outer loop
      vertex 0.021289 0.0452414 0.25
      vertex 0.0240877 0.0438153 -0.25
      vertex 0.021289 0.0452414 -0.25
    endloop
  endfacet
  facet normal 0.397148 0.917755 -0
    outer loop
      vertex 0.021289 0.0452414 -0.25
      vertex 0.0184062 0.0464888 0.25
      vertex 0.021289 0.0452414 0.25
    endloop
  endfacet
  facet normal 0.397148 0.917755 0
    outer loop
      vertex 0.0184062 0.0464888 0.25
      vertex 0.021289 0.0452414 -0.25
      vertex 0.0184062 0.0464888 -0.25
    endloop
  endfacet
  facet normal 0.338737 0.940881 -0
    outer loop
      vertex 0.0184062 0.0464888 -0.25
      vertex 0.0154509 0.0475528 0.25
      vertex 0.0184062 0.0464888 0.25
    endloop
  endfacet
  facet normal 0.338737 0.940881 0
    outer loop
      vertex 0.0154509 0.0475528 0.25
      vertex 0.0184062 0.0464888 -0.25
      vertex 0.0154509 0.0475528 -0.25
    endloop
  endfacet
  facet normal 0.278991 0.960294 -0
    outer loop
      vertex 0.0154509 0.0475528 -0.25
      vertex 0.0124345 0.0484292 0.25
      vertex 0.0154509 0.0475528 0.25
    endloop
  endfacet
  facet normal 0.278991 0.960294 0
    outer loop
      vertex 0.0124345 0.0484292 0.25
      vertex 0.0154509 0.0475528 -0.25
      vertex 0.0124345 0.0484292 -0.25
    endloop
  endfacet
  facet normal 0.218143 0.975917 -0
    outer loop
      vertex 0.0124345 0.0484292 -0.25
      vertex 0.00936907 0.0491144 0.25
      vertex 0.0124345 0.0484292 0.25
    endloop
  endfacet
  facet normal 0.218143 0.975917 0
    outer loop
      vertex 0.00936907 0.0491144 0.25
      vertex 0.0124345 0.0484292 -0.25
      vertex 0.00936907 0.0491144 -0.25
    endloop
  endfacet
  facet normal 0.156435 0.987688 -0
    outer loop
      vertex 0.00936907 0.0491144 -0.25
      vertex 0.00626666 0.0496057 0.25
      vertex 0.00936907 0.0491144 0.25
    endloop
  endfacet
  facet normal 0.156435 0.987688 0
    outer loop
      vertex 0.00626666 0.0496057 0.25
      vertex 0.00936907 0.0491144 -0.25
      vertex 0.00626666 0.0496057 -0.25
    endloop
  endfacet
  facet normal 0.0941085 0.995562 -0
    outer loop
      vertex 0.00626666 0.0496057 -0.25
      vertex 0.00313953 0.0499013 0.25
      vertex 0.00626666 0.0496057 0.25
    endloop
  endfacet
  facet normal 0.0941085 0.995562 0
    outer loop
      vertex 0.00313953 0.0499013 0.25
      vertex 0.00626666 0.0496057 -0.25
      vertex 0.00313953 0.0499013 -0.25
    endloop
  endfacet
  facet normal 0.031411 0.999507 -0
    outer loop
      vertex 0.00313953 0.0499013 -0.25
      vertex 3.06162e-18 0.05 0.25
      vertex 0.00313953 0.0499013 0.25
    endloop
  endfacet
  facet normal 0.031411 0.999507 0
    outer loop
      vertex 3.06162e-18 0.05 0.25
      vertex 0.00313953 0.0499013 -0.25
      vertex 3.06162e-18 0.05 -0.25
    endloop
  endfacet
  facet normal -0.031411 0.999507 0
    outer loop
      vertex 3.06162e-18 0.05 -0.25
      vertex -0.00313953 0.0499013 0.25
      vertex 3.06162e-18 0.05 0.25
    endloop
  endfacet
  facet normal -0.031411 0.999507 0
    outer loop
      vertex -0.00313953 0.0499013 0.25
      vertex 3.06162e-18 0.05 -0.25
      vertex -0.00313953 0.0499013 -0.25
    endloop
  endfacet
  facet normal -0.0941085 0.995562 0
    outer loop
      vertex -0.00313953 0.0499013 -0.25
      vertex -0.00626666 0.0496057 0.25
      vertex -0.00313953 0.0499013 0.25
    endloop
  endfacet
  facet normal -0.0941085 0.995562 0
    outer loop
      vertex -0.00626666 0.0496057 0.25
      vertex -0.00313953 0.0499013 -0.25
      vertex -0.00626666 0.0496057 -0.25
    endloop
  endfacet
  facet normal -0.156435 0.987688 0
    outer loop
      vertex -0.00626666 0.0496057 -0.25
      vertex -0.00936907 0.0491144 0.25
      vertex -0.00626666 0.0496057 0.25
    endloop
  endfacet
  facet normal -0.156435 0.987688 0
    outer loop
      vertex -0.00936907 0.0491144 0.25
      vertex -0.00626666 0.0496057 -0.25
      vertex -0.00936907 0.0491144 -0.25
    endloop
  endfacet
  facet normal -0.218143 0.975917 0
    outer loop
      vertex -0.00936907 0.0491144 -0.25
      vertex -0.0124345 0.0484292 0.25
      vertex -0.00936907 0.0491144 0.25
    endloop
  endfacet
  facet normal -0.218143 0.975917 0
    outer loop
      vertex -0.0124345 0.0484292 0.25
      vertex -0.00936907 0.0491144 -0.25
      vertex -0.0124345 0.0484292 -0.25
    endloop
  endfacet
  facet normal -0.278991 0.960294 0
    outer loop
      vertex -0.0124345 0.0484292 -0.25
      vertex -0.0154509 0.0475528 0.25
      vertex -0.0124345 0.0484292 0.25
    endloop
  endfacet
  facet normal -0.278991 0.960294 0
    outer loop
      vertex -0.0154509 0.0475528 0.25
      vertex -0.0124345 0.0484292 -0.25
      vertex -0.0154509 0.0475528 -0.25
    endloop
  endfacet
  facet normal -0.338737 0.940881 0
    outer loop
      vertex -0.0154509 0.0475528 -0.25
      vertex -0.0184062 0.0464888 0.25
      vertex -0.0154509 0.0475528 0.25
    endloop
  endfacet
  facet normal -0.338737 0.940881 0
    outer loop
      vertex -0.0184062 0.0464888 0.25
      vertex -0.0154509 0.0475528 -0.25
      vertex -0.0184062 0.0464888 -0.25
    endloop
  endfacet
  facet normal -0.397148 0.917755 0
    outer loop
      vertex -0.0184062 0.0464888 -0.25
      vertex -0.021289 0.0452414 0.25
      vertex -0.0184062 0.0464888 0.25
    endloop
  endfacet
  facet normal -0.397148 0.917755 0
    outer loop
      vertex -0.021289 0.0452414 0.25
      vertex -0.0184062 0.0464888 -0.25
      vertex -0.021289 0.0452414 -0.25
    endloop
  endfacet
  facet normal -0.453991 0.891007 0
    outer loop
      vertex -0.021289 0.0452414 -0.25
      vertex -0.0240877 0.0438153 0.25
      vertex -0.021289 0.0452414 0.25
    endloop
  endfacet
  facet normal -0.453991 0.891007 0
    outer loop
      vertex -0.0240877 0.0438153 0.25
      vertex -0.021289 0.0452414 -0.25
      vertex -0.0240877 0.0438153 -0.25
    endloop
  endfacet
  facet normal -0.509041 0.860742 0
    outer loop
      vertex -0.0240877 0.0438153 -0.25
      vertex -0.0267913 0.0422164 0.25
      vertex -0.0240877 0.0438153 0.25
    endloop
  endfacet
  facet normal -0.509041 0.860742 0
    outer loop
      vertex -0.0267913 0.0422164 0.25
      vertex -0.0240877 0.0438153 -0.25
      vertex -0.0267913 0.0422164 -0.25
    endloop
  endfacet
  facet normal -0.562084 0.82708 0
    outer loop
      vertex -0.0267913 0.0422164 -0.25
      vertex -0.0293893 0.0404508 0.25
      vertex -0.0267913 0.0422164 0.25
    endloop
  endfacet
  facet normal -0.562084 0.82708 0
    outer loop
      vertex -0.0293893 0.0404508 0.25
      vertex -0.0267913 0.0422164 -0.25
      vertex -0.0293893 0.0404508 -0.25
    endloop
  endfacet
  facet normal -0.612907 0.790155 0
    outer loop
      vertex -0.0293893 0.0404508 -0.25
      vertex -0.0318712 0.0385257 0.25
      vertex -0.0293893 0.0404508 0.25
    endloop
  endfacet
  facet normal -0.612907 0.790155 0
    outer loop
      vertex -0.0318712 0.0385257 0.25
      vertex -0.0293893 0.0404508 -0.25
      vertex -0.0318712 0.0385257 -0.25
    endloop
  endfacet
  facet normal -0.661312 0.750111 0
    outer loop
      vertex -0.0318712 0.0385257 -0.25
      vertex -0.0342274 0.0364484 0.25
      vertex -0.0318712 0.0385257 0.25
    endloop
  endfacet
  facet normal -0.661312 0.750111 0
    outer loop
      vertex -0.0342274 0.0364484 0.25
      vertex -0.0318712 0.0385257 -0.25
      vertex -0.0342274 0.0364484 -0.25
    endloop
  endfacet
  facet normal -0.707107 0.707107 0
    outer loop
      vertex -0.0364484 0.0342274 -0.25
      vertex -0.0342274 0.0364484 0.25
      vertex -0.0342274 0.0364484 -0.25
    endloop
  endfacet
  facet normal -0.707107 0.707107 0
    outer loop
      vertex -0.0342274 0.0364484 0.25
      vertex -0.0364484 0.0342274 -0.25
      vertex -0.0364484 0.0342274 0.25
    endloop
  endfacet
  facet normal -0.750111 0.661312 0
    outer loop
      vertex -0.0385257 0.0318712 -0.25
      vertex -0.0364484 0.0342274 0.25
      vertex -0.0364484 0.0342274 -0.25
    endloop
  endfacet
  facet normal -0.750111 0.661312 0
    outer loop
      vertex -0.0364484 0.0342274 0.25
      vertex -0.0385257 0.0318712 -0.25
      vertex -0.0385257 0.0318712 0.25
    endloop
  endfacet
  facet normal -0.790155 0.612907 0
    outer loop
      vertex -0.0404508 0.0293893 -0.25
      vertex -0.0385257 0.0318712 0.25
      vertex -0.0385257 0.0318712 -0.25
    endloop
  endfacet
  facet normal -0.790155 0.612907 0
    outer loop
      vertex -0.0385257 0.0318712 0.25
      vertex -0.0404508 0.0293893 -0.25
      vertex -0.0404508 0.0293893 0.25
    endloop
  endfacet
  facet normal -0.82708 0.562084 0
    outer loop
      vertex -0.0422164 0.0267913 -0.25
      vertex -0.0404508 0.0293893 0.25
      vertex -0.0404508 0.0293893 -0.25
    endloop
  endfacet
  facet normal -0.82708 0.562084 0
    outer loop
      vertex -0.0404508 0.0293893 0.25
      vertex -0.0422164 0.0267913 -0.25
      vertex -0.0422164 0.0267913 0.25
    endloop
  endfacet
  facet normal -0.860742 0.509041 0
    outer loop
      vertex -0.0438153 0.0240877 -0.25
      vertex -0.0422164 0.0267913 0.25
      vertex -0.0422164 0.0267913 -0.25
    endloop
  endfacet
  facet normal -0.860742 0.509041 0
    outer loop
      vertex -0.0422164 0.0267913 0.25
      vertex -0.0438153 0.0240877 -0.25
      vertex -0.0438153 0.0240877 0.25
    endloop
  endfacet
  facet normal -0.891007 0.453991 0
    outer loop
      vertex -0.0452414 0.021289 -0.25
      vertex -0.0438153 0.0240877 0.25
      vertex -0.0438153 0.0240877 -0.25
    endloop
  endfacet
  facet normal -0.891007 0.453991 0
    outer loop
      vertex -0.0438153 0.0240877 0.25
      vertex -0.0452414 0.021289 -0.25
      vertex -0.0452414 0.021289 0.25
    endloop
  endfacet
  facet normal -0.917755 0.397148 0
    outer loop
      vertex -0.0464888 0.0184062 -0.25
      vertex -0.0452414 0.021289 0.25
      vertex -0.0452414 0.021289 -0.25
    endloop
  endfacet
  facet normal -0.917755 0.397148 0
    outer loop
      vertex -0.0452414 0.021289 0.25
      vertex -0.0464888 0.0184062 -0.25
      vertex -0.0464888 0.0184062 0.25
    endloop
  endfacet
  facet normal -0.940881 0.338737 0
    outer loop
      vertex -0.0475528 0.0154509 -0.25
      vertex -0.0464888 0.0184062 0.25
      vertex -0.0464888 0.0184062 -0.25
    endloop
  endfacet
  facet normal -0.940881 0.338737 0
    outer loop
      vertex -0.0464888 0.0184062 0.25
      vertex -0.0475528 0.0154509 -0.25
      vertex -0.0475528 0.0154509 0.25
    endloop
  endfacet
  facet normal -0.960294 0.278991 0
    outer loop
      vertex -0.0484292 0.0124345 -0.25
      vertex -0.0475528 0.0154509 0.25
      vertex -0.0475528 0.0154509 -0.25
    endloop
  endfacet
  facet normal -0.960294 0.278991 0
    outer loop
      vertex -0.0475528 0.0154509 0.25
      vertex -0.0484292 0.0124345 -0.25
      vertex -0.0484292 0.0124345 0.25
    endloop
  endfacet
  facet normal -0.975917 0.218143 0
    outer loop
      vertex -0.0491144 0.00936907 -0.25
      vertex -0.0484292 0.0124345 0.25
      vertex -0.0484292 0.0124345 -0.25
    endloop
  endfacet
  facet normal -0.975917 0.218143 0
    outer loop
      vertex -0.0484292 0.0124345 0.25
      vertex -0.0491144 0.00936907 -0.25
      vertex -0.0491144 0.00936907 0.25
    endloop
  endfacet
  facet normal -0.987688 0.156435 0
    outer loop
      vertex -0.0496057 0.00626666 -0.25
      vertex -0.0491144 0.00936907 0.25
      vertex -0.0491144 0.00936907 -0.25
    endloop
  endfacet
  facet normal -0.987688 0.156435 0
    outer loop
      vertex -0.0491144 0.00936907 0.25
      vertex -0.0496057 0.00626666 -0.25
      vertex -0.0496057 0.00626666 0.25
    endloop
  endfacet
  facet normal -0.995562 0.0941085 0
    outer loop
      vertex -0.0499013 0.00313953 -0.25
      vertex -0.0496057 0.00626666 0.25
      vertex -0.0496057 0.00626666 -0.25
    endloop
  endfacet
  facet normal -0.995562 0.0941085 0
    outer loop
      vertex -0.0496057 0.00626666 0.25
      vertex -0.0499013 0.00313953 -0.25
      vertex -0.0499013 0.00313953 0.25
    endloop
  endfacet
  facet normal -0.999507 0.031411 0
    outer loop
      vertex -0.05 6.12323e-18 -0.25
      vertex -0.0499013 0.00313953 0.25
      vertex -0.0499013 0.00313953 -0.25
    endloop
  endfacet
  facet normal -0.999507 0.031411 0
    outer loop
      vertex -0.0499013 0.00313953 0.25
      vertex -0.05 6.12323e-18 -0.25
      vertex -0.05 6.12323e-18 0.25
    endloop
  endfacet
  facet normal -0.999507 -0.031411 0
    outer loop
      vertex -0.0499013 -0.00313953 -0.25
      vertex -0.05 6.12323e-18 0.25
      vertex -0.05 6.12323e-18 -0.25
    endloop
  endfacet
  facet normal -0.999507 -0.031411 0
    outer loop
      vertex -0.05 6.12323e-18 0.25
      vertex -0.0499013 -0.00313953 -0.25
      vertex -0.0499013 -0.00313953 0.25
    endloop
  endfacet
  facet normal -0.995562 -0.0941085 0
    outer loop
      vertex -0.0496057 -0.00626666 -0.25
      vertex -0.0499013 -0.00313953 0.25
      vertex -0.0499013 -0.00313953 -0.25
    endloop
  endfacet
  facet normal -0.995562 -0.0941085 0
    outer loop
      vertex -0.0499013 -0.00313953 0.25
      vertex -0.0496057 -0.00626666 -0.25
      vertex -0.0496057 -0.00626666 0.25
    endloop
  endfacet
  facet normal -0.987688 -0.156435 0
    outer loop
      vertex -0.0491144 -0.00936907 -0.25
      vertex -0.0496057 -0.00626666 0.25
      vertex -0.0496057 -0.00626666 -0.25
    endloop
  endfacet
  facet normal -0.987688 -0.156435 0
    outer loop
      vertex -0.0496057 -0.00626666 0.25
      vertex -0.0491144 -0.00936907 -0.25
      vertex -0.0491144 -0.00936907 0.25
    endloop
  endfacet
  facet normal -0.975917 -0.218143 0
    outer loop
      vertex -0.0484292 -0.0124345 -0.25
      vertex -0.0491144 -0.00936907 0.25
      vertex -0.0491144 -0.00936907 -0.25
    endloop
  endfacet
  facet normal -0.975917 -0.218143 0
    outer loop
      vertex -0.0491144 -0.00936907 0.25
      vertex -0.0484292 -0.0124345 -0.25
      vertex -0.0484292 -0.0124345 0.25
    endloop
  endfacet
  facet normal -0.960294 -0.278991 0
    outer loop
      vertex -0.0475528 -0.0154509 -0.25
      vertex -0.0484292 -0.0124345 0.25
      vertex -0.0484292 -0.0124345 -0.25
    endloop
  endfacet
  facet normal -0.960294 -0.278991 0
    outer loop
      vertex -0.0484292 -0.0124345 0.25
      vertex -0.0475528 -0.0154509 -0.25
      vertex -0.0475528 -0.0154509 0.25
    endloop
  endfacet
  facet normal -0.940881 -0.338737 0
    outer loop
      vertex -0.0464888 -0.0184062 -0.25
      vertex -0.0475528 -0.0154509 0.25
      vertex -0.0475528 -0.0154509 -0.25
    endloop
  endfacet
  facet normal -0.940881 -0.338737 0
    outer loop
      vertex -0.0475528 -0.0154509 0.25
      vertex -0.0464888 -0.0184062 -0.25
      vertex -0.0464888 -0.0184062 0.25
    endloop
  endfacet
  facet normal -0.917755 -0.397148 0
    outer loop
      vertex -0.0452414 -0.021289 -0.25
      vertex -0.0464888 -0.0184062 0.25
      vertex -0.0464888 -0.0184062 -0.25
    endloop
  endfacet
  facet normal -0.917755 -0.397148 0
    outer loop
      vertex -0.0464888 -0.0184062 0.25
      vertex -0.0452414 -0.021289 -0.25
      vertex -0.0452414 -0.021289 0.25
    endloop
  endfacet
  facet normal -0.891007 -0.453991 0
    outer loop
      vertex -0.0438153 -0.0240877 -0.25
      vertex -0.0452414 -0.021289 0.25
      vertex -0.0452414 -0.021289 -0.25
    endloop
  endfacet
  facet normal -0.891007 -0.453991 0
    outer loop
      vertex -0.0452414 -0.021289 0.25
      vertex -0.0438153 -0.0240877 -0.25
      vertex -0.0438153 -0.0240877 0.25
    endloop
  endfacet
  facet normal -0.860742 -0.509041 0
    outer loop
      vertex -0.0422164 -0.0267913 -0.25
      vertex -0.0438153 -0.0240877 0.25
      vertex -0.0438153 -0.0240877 -0.25
    endloop
  endfacet
  facet normal -0.860742 -0.509041 0
    outer loop
      vertex -0.0438153 -0.0240877 0.25
      vertex -0.0422164 -0.0267913 -0.25
      vertex -0.0422164 -0.0267913 0.25
    endloop
  endfacet
  facet normal -0.82708 -0.562084 0
    outer loop
      vertex -0.0404508 -0.0293893 -0.25
      vertex -0.0422164 -0.0267913 0.25
      vertex -0.0422164 -0.0267913 -0.25
    endloop
  endfacet
  facet normal -0.82708 -0.562084 0
    outer loop
      vertex -0.0422164 -0.0267913 0.25
      vertex -0.0404508 -0.0293893 -0.25
      vertex -0.0404508 -0.0293893 0.25
    endloop
  endfacet
  facet normal -0.790155 -0.612907 0
    outer loop
      vertex -0.0385257 -0.0318712 -0.25
      vertex -0.0404508 -0.0293893 0.25
      vertex -0.0404508 -0.0293893 -0.25
    endloop
  endfacet
  facet normal -0.790155 -0.612907 0
    outer loop
      vertex -0.0404508 -0.0293893 0.25
      vertex -0.0385257 -0.0318712 -0.25
      vertex -0.0385257 -0.0318712 0.25
    endloop
  endfacet
  facet normal -0.750111 -0.661312 0
    outer loop
      vertex -0.0364484 -0.0342274 -0.25
      vertex -0.0385257 -0.0318712 0.25
      vertex -0.0385257 -0.0318712 -0.25
    endloop
  endfacet
  facet normal -0.750111 -0.661312 0
    outer loop
      vertex -0.0385257 -0.0318712 0.25
      vertex -0.0364484 -0.0342274 -0.25
      vertex -0.0364484 -0.0342274 0.25
    endloop
  endfacet
  facet normal -0.707107 -0.707107 0
    outer loop
      vertex -0.0342274 -0.0364484 -0.25
      vertex -0.0364484 -0.0342274 0.25
      vertex -0.0364484 -0.0342274 -0.25
    endloop
  endfacet
  facet normal -0.707107 -0.707107 0
    outer loop
      vertex -0.0364484 -0.0342274 0.25
      vertex -0.0342274 -0.0364484 -0.25
      vertex -0.0342274 -0.0364484 0.25
    endloop
  endfacet
  facet normal -0.661312 -0.750111 0
    outer loop
      vertex -0.0342274 -0.0364484 -0.25
      vertex -0.0318712 -0.0385257 0.25
      vertex -0.0342274 -0.0364484 0.25
    endloop
  endfacet
  facet normal -0.661312 -0.750111 -0
    outer loop
      vertex -0.0318712 -0.0385257 0.25
      vertex -0.0342274 -0.0364484 -0.25
      vertex -0.0318712 -0.0385257 -0.25
    endloop
  endfacet
  facet normal -0.612907 -0.790155 0
    outer loop
      vertex -0.0318712 -0.0385257 -0.25
      vertex -0.0293893 -0.0404508 0.25
      vertex -0.0318712 -0.0385257 0.25
    endloop
  endfacet
  facet normal -0.612907 -0.790155 -0
    outer loop
      vertex -0.0293893 -0.0404508 0.25
      vertex -0.0318712 -0.0385257 -0.25
      vertex -0.0293893 -0.0404508 -0.25
    endloop
  endfacet
  facet normal -0.562084 -0.82708 0
    outer loop
      vertex -0.0293893 -0.0404508 -0.25
      vertex -0.0267913 -0.0422164 0.25
      vertex -0.0293893 -0.0404508 0.25
    endloop
  endfacet
  facet normal -0.562084 -0.82708 -0
    outer loop
      vertex -0.0267913 -0.0422164 0.25
      vertex -0.0293893 -0.0404508 -0.25
      vertex -0.0267913 -0.0422164 -0.25
    endloop
  endfacet
  facet normal -0.509041 -0.860742 0
    outer loop
      vertex -0.0267913 -0.0422164 -0.25
      vertex -0.0240877 -0.0438153 0.25
      vertex -0.0267913 -0.0422164 0.25
    endloop
  endfacet
  facet normal -0.509041 -0.860742 -0
    outer loop
      vertex -0.0240877 -0.0438153 0.25
      vertex -0.0267913 -0.0422164 -0.25
      vertex -0.0240877 -0.0438153 -0.25
    endloop
  endfacet
  facet normal -0.453991 -0.891007 0
    outer loop
      vertex -0.0240877 -0.0438153 -0.25
      vertex -0.021289 -0.0452414 0.25
      vertex -0.0240877 -0.0438153 0.25
    endloop
  endfacet
  facet normal -0.453991 -0.891007 -0
    outer loop
      vertex -0.021289 -0.0452414 0.25
      vertex -0.0240877 -0.0438153 -0.25
      vertex -0.021289 -0.0452414 -0.25
    endloop
  endfacet
  facet normal -0.397148 -0.917755 0
    outer loop
      vertex -0.021289 -0.0452414 -0.25
      vertex -0.0184062 -0.0464888 0.25
      vertex -0.021289 -0.0452414 0.25
    endloop
  endfacet
  facet normal -0.397148 -0.917755 -0
    outer loop
      vertex -0.0184062 -0.0464888 0.25
      vertex -0.021289 -0.0452414 -0.25
      vertex -0.0184062 -0.0464888 -0.25
    endloop
  endfacet
  facet normal -0.338737 -0.940881 0
    outer loop
      vertex -0.0184062 -0.0464888 -0.25
      vertex -0.0154509 -0.0475528 0.25
      vertex -0.0184062 -0.0464888 0.25
    endloop
  endfacet
  facet normal -0.338737 -0.940881 -0
    outer loop
      vertex -0.0154509 -0.0475528 0.25
      vertex -0.0184062 -0.0464888 -0.25
      vertex -0.0154509 -0.0475528 -0.25
    endloop
  endfacet
  facet normal -0.278991 -0.960294 0
    outer loop
      vertex -0.0154509 -0.0475528 -0.25
      vertex -0.0124345 -0.0484292 0.25
      vertex -0.0154509 -0.0475528 0.25
    endloop
  endfacet
  facet normal -0.278991 -0.960294 -0
    outer loop
      vertex -0.0124345 -0.0484292 0.25
      vertex -0.0154509 -0.0475528 -0.25
      vertex -0.0124345 -0.0484292 -0.25
    endloop
  endfacet
  facet normal -0.218143 -0.975917 0
    outer loop
      vertex -0.0124345 -0.0484292 -0.25
      vertex -0.00936907 -0.0491144 0.25
      vertex -0.0124345 -0.0484292 0.25
    endloop
  endfacet
  facet normal -0.218143 -0.975917 -0
    outer loop
      vertex -0.00936907 -0.0491144 0.25
      vertex -0.0124345 -0.0484292 -0.25
      vertex -0.00936907 -0.0491144 -0.25
    endloop
  endfacet
  facet normal -0.156435 -0.987688 0
    outer loop
      vertex -0.00936907 -0.0491144 -0.25
      vertex -0.00626666 -0.0496057 0.25
      vertex -0.00936907 -0.0491144 0.25
    endloop
  endfacet
  facet normal -0.156435 -0.987688 -0
    outer loop
      vertex -0.00626666 -0.0496057 0.25
      vertex -0.00936907 -0.0491144 -0.25
      vertex -0.00626666 -0.0496057 -0.25
    endloop
  endfacet
  facet normal -0.0941085 -0.995562 0
    outer loop
      vertex -0.00626666 -0.0496057 -0.25
      vertex -0.00313953 -0.0499013 0.25
      vertex -0.00626666 -0.0496057 0.25
    endloop
  endfacet
  facet normal -0.0941085 -0.995562 -0
    outer loop
      vertex -0.00313953 -0.0499013 0.25
      vertex -0.00626666 -0.0496057 -0.25
      vertex -0.00313953 -0.0499013 -0.25
    endloop
  endfacet
  facet normal -0.031411 -0.999507 0
    outer loop
      vertex -0.00313953 -0.0499013 -0.25
      vertex -9.18485e-18 -0.05 0.25
      vertex -0.00313953 -0.0499013 0.25
    endloop
  endfacet
  facet normal -0.031411 -0.999507 -0
    outer loop
      vertex -9.18485e-18 -0.05 0.25
      vertex -0.00313953 -0.0499013 -0.25
      vertex -9.18485e-18 -0.05 -0.25
    endloop
  endfacet
  facet normal 0.031411 -0.999507 0
    outer loop
      vertex -9.18485e-18 -0.05 -0.25
      vertex 0.00313953 -0.0499013 0.25
      vertex -9.18485e-18 -0.05 0.25
    endloop
  endfacet
  facet normal 0.031411 -0.999507 0
    outer loop
      vertex 0.00313953 -0.0499013 0.25
      vertex -9.18485e-18 -0.05 -0.25
      vertex 0.00313953 -0.0499013 -0.25
    endloop
  endfacet
  facet normal 0.0941085 -0.995562 0
    outer loop
      vertex 0.00313953 -0.0499013 -0.25
      vertex 0.00626666 -0.0496057 0.25
      vertex 0.00313953 -0.0499013 0.25
    endloop
  endfacet
  facet normal 0.0941085 -0.995562 0
    outer loop
      vertex 0.00626666 -0.0496057 0.25
      vertex 0.00313953 -0.0499013 -0.25
      vertex 0.00626666 -0.0496057 -0.25
    endloop
  endfacet
  facet normal 0.156435 -0.987688 0
    outer loop
      vertex 0.00626666 -0.0496057 -0.25
      vertex 0.00936907 -0.0491144 0.25
      vertex 0.00626666 -0.0496057 0.25
    endloop
  endfacet
  facet normal 0.156435 -0.987688 0
    outer loop
      vertex 0.00936907 -0.0491144 0.25
      vertex 0.00626666 -0.0496057 -0.25
      vertex 0.00936907 -0.0491144 -0.25
    endloop
  endfacet
  facet normal 0.218143 -0.975917 0
    outer loop
      vertex 0.00936907 -0.0491144 -0.25
      vertex 0.0124345 -0.0484292 0.25
      vertex 0.00936907 -0.0491144 0.25
    endloop
  endfacet
  facet normal 0.218143 -0.975917 0
    outer loop
      vertex 0.0124345 -0.0484292 0.25
      vertex 0.00936907 -0.0491144 -0.25
      vertex 0.0124345 -0.0484292 -0.25
    endloop
  endfacet
  facet normal 0.278991 -0.960294 0
    outer loop
      vertex 0.0124345 -0.0484292 -0.25
      vertex 0.0154509 -0.0475528 0.25
      vertex 0.0124345 -0.0484292 0.25
    endloop
  endfacet
  facet normal 0.278991 -0.960294 0
    outer loop
      vertex 0.0154509 -0.0475528 0.25
      vertex 0.0124345 -0.0484292 -0.25
      vertex 0.0154509 -0.0475528 -0.25
    endloop
  endfacet
  facet normal 0.338737 -0.940881 0
    outer loop
      vertex 0.0154509 -0.0475528 -0.25
      vertex 0.0184062 -0.0464888 0.25
      vertex 0.0154509 -0.0475528 0.25
    endloop
  endfacet
  facet normal 0.338737 -0.940881 0
    outer loop
      vertex 0.0184062 -0.0464888 0.25
      vertex 0.0154509 -0.0475528 -0.25
      vertex 0.0184062 -0.0464888 -0.25
    endloop
  endfacet
  facet normal 0.397148 -0.917755 0
    outer loop
      vertex 0.0184062 -0.0464888 -0.25
      vertex 0.021289 -0.0452414 0.25
      vertex 0.0184062 -0.0464888 0.25
    endloop
  endfacet
  facet normal 0.397148 -0.917755 0
    outer loop
      vertex 0.021289 -0.0452414 0.25
      vertex 0.0184062 -0.0464888 -0.25
      vertex 0.021289 -0.0452414 -0.25
    endloop
  endfacet
  facet normal 0.453991 -0.891007 0
    outer loop
      vertex 0.021289 -0.0452414 -0.25
      vertex 0.0240877 -0.0438153 0.25
      vertex 0.021289 -0.0452414 0.25
    endloop
  endfacet
  facet normal 0.453991 -0.891007 0
    outer loop
      vertex 0.0240877 -0.0438153 0.25
      vertex 0.021289 -0.0452414 -0.25
      vertex 0.0240877 -0.0438153 -0.25
    endloop
  endfacet
  facet normal 0.509041 -0.860742 0
    outer loop
      vertex 0.0240877 -0.0438153 -0.25
      vertex 0.0267913 -0.0422164 0.25
      vertex 0.0240877 -0.0438153 0.25
    endloop
  endfacet
  facet normal 0.509041 -0.860742 0
    outer loop
      vertex 0.0267913 -0.0422164 0.25
      vertex 0.0240877 -0.0438153 -0.25
      vertex 0.0267913 -0.0422164 -0.25
    endloop
  endfacet
  facet normal 0.562084 -0.82708 0
    outer loop
      vertex 0.0267913 -0.0422164 -0.25
      vertex 0.0293893 -0.0404508 0.25
      vertex 0.0267913 -0.0422164 0.25
    endloop
  endfacet
  facet normal 0.562084 -0.82708 0
    outer loop
      vertex 0.0293893 -0.0404508 0.25
      vertex 0.0267913 -0.0422164 -0.25
      vertex 0.0293893 -0.0404508 -0.25
    endloop
  endfacet
  facet normal 0.612907 -0.790155 0
    outer loop
      vertex 0.0293893 -0.0404508 -0.25
      vertex 0.0318712 -0.0385257 0.25
      vertex 0.0293893 -0.0404508 0.25
    endloop
  endfacet
  facet normal 0.612907 -0.790155 0
    outer loop
      vertex 0.0318712 -0.0385257 0.25
      vertex 0.0293893 -0.0404508 -0.25
      vertex 0.0318712 -0.0385257 -0.25
    endloop
  endfacet
  facet normal 0.661312 -0.750111 0
    outer loop
      vertex 0.0318712 -0.0385257 -0.25
      vertex 0.0342274 -0.0364484 0.25
      vertex 0.0318712 -0.0385257 0.25
    endloop
  endfacet
  facet normal 0.661312 -0.750111 0
    outer loop
      vertex 0.0342274 -0.0364484 0.25
      vertex 0.0318712 -0.0385257 -0.25
      vertex 0.0342274 -0.0364484 -0.25
    endloop
  endfacet
  facet normal 0.707107 -0.707107 0
    outer loop
      vertex 0.0342274 -0.0364484 0.25
      vertex 0.0364484 -0.0342274 -0.25
      vertex 0.0364484 -0.0342274 0.25
    endloop
  endfacet
  facet normal 0.707107 -0.707107 0
    outer loop
      vertex 0.0364484 -0.0342274 -0.25
      vertex 0.0342274 -0.0364484 0.25
      vertex 0.0342274 -0.0364484 -0.25
    endloop
  endfacet
  facet normal 0.750111 -0.661312 0
    outer loop
      vertex 0.0364484 -0.0342274 0.25
      vertex 0.0385257 -0.0318712 -0.25
      vertex 0.0385257 -0.0318712 0.25
    endloop
  endfacet
  facet normal 0.750111 -0.661312 0
    outer loop
      vertex 0.0385257 -0.0318712 -0.25
      vertex 0.0364484 -0.0342274 0.25
      vertex 0.0364484 -0.0342274 -0.25
    endloop
  endfacet
  facet normal 0.790155 -0.612907 0
    outer loop
      vertex 0.0385257 -0.0318712 0.25
      vertex 0.0404508 -0.0293893 -0.25
      vertex 0.0404508 -0.0293893 0.25
    endloop
  endfacet
  facet normal 0.790155 -0.612907 0
    outer loop
      vertex 0.0404508 -0.0293893 -0.25
      vertex 0.0385257 -0.0318712 0.25
      vertex 0.0385257 -0.0318712 -0.25
    endloop
  endfacet
  facet normal 0.82708 -0.562084 0
    outer loop
      vertex 0.0404508 -0.0293893 0.25
      vertex 0.0422164 -0.0267913 -0.25
      vertex 0.0422164 -0.0267913 0.25
    endloop
  endfacet
  facet normal 0.82708 -0.562084 0
    outer loop
      vertex 0.0422164 -0.0267913 -0.25
      vertex 0.0404508 -0.0293893 0.25
      vertex 0.0404508 -0.0293893 -0.25
    endloop
  endfacet
  facet normal 0.860742 -0.509041 0
    outer loop
      vertex 0.0422164 -0.0267913 0.25
      vertex 0.0438153 -0.0240877 -0.25
      vertex 0.0438153 -0.0240877 0.25
    endloop
  endfacet
  facet normal 0.860742 -0.509041 0
    outer loop
      vertex 0.0438153 -0.0240877 -0.25
      vertex 0.0422164 -0.0267913 0.25
      vertex 0.0422164 -0.0267913 -0.25
    endloop
  endfacet
  facet normal 0.891007 -0.453991 0
    outer loop
      vertex 0.0438153 -0.0240877 0.25
      vertex 0.0452414 -0.021289 -0.25
      vertex 0.0452414 -0.021289 0.25
    endloop
  endfacet
  facet normal 0.891007 -0.453991 0
    outer loop
      vertex 0.0452414 -0.021289 -0.25
      vertex 0.0438153 -0.0240877 0.25
      vertex 0.0438153 -0.0240877 -0.25
    endloop
  endfacet
  facet normal 0.917755 -0.397148 0
    outer loop
      vertex 0.0452414 -0.021289 0.25
      vertex 0.0464888 -0.0184062 -0.25
      vertex 0.0464888 -0.0184062 0.25
    endloop
  endfacet
  facet normal 0.917755 -0.397148 0
    outer loop
      vertex 0.0464888 -0.0184062 -0.25
      vertex 0.0452414 -0.021289 0.25
      vertex 0.0452414 -0.021289 -0.25
    endloop
  endfacet
  facet normal 0.940881 -0.338737 0
    outer loop
      vertex 0.0464888 -0.0184062 0.25
      vertex 0.0475528 -0.0154509 -0.25
      vertex 0.0475528 -0.0154509 0.25
    endloop
  endfacet
  facet normal 0.940881 -0.338737 0
    outer loop
      vertex 0.0475528 -0.0154509 -0.25
      vertex 0.0464888 -0.0184062 0.25
      vertex 0.0464888 -0.0184062 -0.25
    endloop
  endfacet
  facet normal 0.960294 -0.278991 0
    outer loop
      vertex 0.0475528 -0.0154509 0.25
      vertex 0.0484292 -0.0124345 -0.25
      vertex 0.0484292 -0.0124345 0.25
    endloop
  endfacet
  facet normal 0.960294 -0.278991 0
    outer loop
      vertex 0.0484292 -0.0124345 -0.25
      vertex 0.0475528 -0.0154509 0.25
      vertex 0.0475528 -0.0154509 -0.25
    endloop
  endfacet
  facet normal 0.975917 -0.218143 0
    outer loop
      vertex 0.0484292 -0.0124345 0.25
      vertex 0.0491144 -0.00936907 -0.25
      vertex 0.0491144 -0.00936907 0.25
    endloop
  endfacet
  facet normal 0.975917 -0.218143 0
    outer loop
      vertex 0.0491144 -0.00936907 -0.25
      vertex 0.0484292 -0.0124345 0.25
      vertex 0.0484292 -0.0124345 -0.25
    endloop
  endfacet
  facet normal 0.987688 -0.156435 0
    outer loop
      vertex 0.0491144 -0.00936907 0.25
      vertex 0.0496057 -0.00626666 -0.25
      vertex 0.0496057 -0.00626666 0.25
    endloop
  endfacet
  facet normal 0.987688 -0.156435 0
    outer loop
      vertex 0.0496057 -0.00626666 -0.25
      vertex 0.0491144 -0.00936907 0.25
      vertex 0.0491144 -0.00936907 -0.25
    endloop
  endfacet
  facet normal 0.995562 -0.0941085 0
    outer loop
      vertex 0.0496057 -0.00626666 0.25
      vertex 0.0499013 -0.00313953 -0.25
      vertex 0.0499013 -0.00313953 0.25
    endloop
  endfacet
  facet normal 0.995562 -0.0941085 0
    outer loop
      vertex 0.0499013 -0.00313953 -0.25
      vertex 0.0496057 -0.00626666 0.25
      vertex 0.0496057 -0.00626666 -0.25
    endloop
  endfacet
  facet normal 0.999507 -0.031411 0
    outer loop
      vertex 0.0499013 -0.00313953 0.25
      vertex 0.05 0 -0.25
      vertex 0.05 0 0.25
    endloop
  endfacet
  facet normal 0.999507 -0.031411 0
    outer loop
      vertex 0.05 0 -0.25
      vertex 0.0499013 -0.00313953 0.25
      vertex 0.0499013 -0.00313953 -0.25
    endloop
  endfacet
  facet normal 0 0 -1
    outer loop
      vertex 0.0499013 -0.00313953 -0.25
      vertex 0.0499013 0.00313953 -0.25
      vertex 0.05 0 -0.25
    endloop
  endfacet
  facet normal 0 0 -1
    outer loop
      vertex 0.0496057 -0.00626666 -0.25
      vertex 0.0499013 0.00313953 -0.25
      vertex 0.0499013 -0.00313953 -0.25
    endloop
  endfacet
  facet normal 0 0 -1
    outer loop
      vertex 0.0496057 -0.00626666 -0.25
      vertex 0.0496057 0.00626666 -0.25
      vertex 0.0499013 0.00313953 -0.25
    endloop
  endfacet
  facet normal 0 0 -1
    outer loop
      vertex 0.0491144 -0.00936907 -0.25
      vertex 0.0496057 0.00626666 -0.25
      vertex 0.0496057 -0.00626666 -0.25
    endloop
  endfacet
  facet normal 0 0 -1
    outer loop
      vertex 0.0491144 -0.00936907 -0.25
      vertex 0.0491144 0.00936907 -0.25
      vertex 0.0496057 0.00626666 -0.25
    endloop
  endfacet
  facet normal 0 0 -1
    outer loop
      vertex 0.0484292 -0.0124345 -0.25
      vertex 0.0491144 0.00936907 -0.25
      vertex 0.0491144 -0.00936907 -0.25
    endloop
  endfacet
  facet normal 0 0 -1
    outer loop
      vertex 0.0484292 -0.0124345 -0.25
      vertex 0.0484292 0.0124345 -0.25
      vertex 0.0491144 0.00936907 -0.25
    endloop
  endfacet
  facet normal 0 0 -1
    outer loop
      vertex 0.0475528 -0.0154509 -0.25
      vertex 0.0484292 0.0124345 -0.25
      vertex 0.0484292 -0.0124345 -0.25
    endloop
  endfacet
  facet normal 0 0 -1
    outer loop
      vertex 0.0475528 -0.0154509 -0.25
      vertex 0.0475528 0.0154509 -0.25
      vertex 0.0484292 0.0124345 -0.25
    endloop
  endfacet
  facet normal 0 0 -1
    outer loop
      vertex 0.0464888 -0.0184062 -0.25
      vertex 0.0475528 0.0154509 -0.25
      vertex 0.0475528 -0.0154509 -0.25
    endloop
  endfacet
  facet normal 0 0 -1
    outer loop
      vertex 0.0464888 -0.0184062 -0.25
      vertex 0.0464888 0.0184062 -0.25
      vertex 0.0475528 0.0154509 -0.25
    endloop
  endfacet
  facet normal 0 0 -1
    outer loop
      vertex 0.0452414 -0.021289 -0.25
      vertex 0.0464888 0.0184062 -0.25
      vertex 0.0464888 -0.0184062 -0.25
    endloop
  endfacet
  facet normal 0 0 -1
    outer loop
      vertex 0.0452414 -0.021289 -0.25
      vertex 0.0452414 0.021289 -0.25
      vertex 0.0464888 0.0184062 -0.25
    endloop
  endfacet
  facet normal 0 0 -1
    outer loop
      vertex 0.0438153 -0.0240877 -0.25
      vertex 0.0452414 0.021289 -0.25
      vertex 0.0452414 -0.021289 -0.25
    endloop
  endfacet
  facet normal 0 0 -1
    outer loop
      vertex 0.0438153 -0.0240877 -0.25
      vertex 0.0438153 0.0240877 -0.25
      vertex 0.0452414 0.021289 -0.25
    endloop
  endfacet
  facet normal 0 0 -1
    outer loop
      vertex 0.0422164 -0.0267913 -0.25
      vertex 0.0438153 0.0240877 -0.25
      vertex 0.0438153 -0.0240877 -0.25
    endloop
  endfacet
  facet normal 0 0 -1
    outer loop
      vertex 0.0422164 -0.0267913 -0.25
      vertex 0.0422164 0.0267913 -0.25
      vertex 0.0438153 0.0240877 -0.25
    endloop
  endfacet
  facet normal 0 0 -1
    outer loop
      vertex 0.0404508 -0.0293893 -0.25
      vertex 0.0422164 0.0267913 -0.25
      vertex 0.0422164 -0.0267913 -0.25
    endloop
  endfacet
  facet normal 0 0 -1
    outer loop
      vertex 0.0404508 -0.0293893 -0.25
      vertex 0.0404508 0.0293893 -0.25
      vertex 0.0422164 0.0267913 -0.25
    endloop
  endfacet
  facet normal 0 0 -1
    outer loop
      vertex 0.0385257 -0.0318712 -0.25
      vertex 0.0404508 0.0293893 -0.25
      vertex 0.0404508 -0.0293893 -0.25
    endloop
  endfacet
  facet normal 0 0 -1
    outer loop
      vertex 0.0385257 -0.0318712 -0.25
      vertex 0.0385257 0.0318712 -0.25
      vertex 0.0404508 0.0293893 -0.25
    endloop
  endfacet
  facet normal 0 0 -1
    outer loop
      vertex 0.0364484 -0.0342274 -0.25
      vertex 0.0385257 0.0318712 -0.25
      vertex 0.0385257 -0.0318712 -0.25
    endloop
  endfacet
  facet normal 0 0 -1
    outer loop
      vertex 0.0364484 -0.0342274 -0.25
      vertex 0.0364484 0.0342274 -0.25
      vertex 0.0385257 0.0318712 -0.25
    endloop
  endfacet
  facet normal 0 0 -1
    outer loop
      vertex 0.0342274 -0.0364484 -0.25
      vertex 0.0364484 0.0342274 -0.25
      vertex 0.0364484 -0.0342274 -0.25
    endloop
  endfacet
  facet normal 0 0 -1
    outer loop
      vertex 0.0342274 -0.0364484 -0.25
      vertex 0.0342274 0.0364484 -0.25
      vertex 0.0364484 0.0342274 -0.25
    endloop
  endfacet
  facet normal 0 0 -1
    outer loop
      vertex 0.0318712 -0.0385257 -0.25
      vertex 0.0342274 0.0364484 -0.25
      vertex 0.0342274 -0.0364484 -0.25
    endloop
  endfacet
  facet normal 0 0 -1
    outer loop
      vertex 0.0318712 -0.0385257 -0.25
      vertex 0.0318712 0.0385257 -0.25
      vertex 0.0342274 0.0364484 -0.25
    endloop
  endfacet
  facet normal 0 0 -1
    outer loop
      vertex 0.0293893 -0.0404508 -0.25
      vertex 0.0318712 0.0385257 -0.25
      vertex 0.0318712 -0.0385257 -0.25
    endloop
  endfacet
  facet normal 0 0 -1
    outer loop
      vertex 0.0293893 -0.0404508 -0.25
      vertex 0.0293893 0.0404508 -0.25
      vertex 0.0318712 0.0385257 -0.25
    endloop
  endfacet
  facet normal 0 0 -1
    outer loop
      vertex 0.0267913 -0.0422164 -0.25
      vertex 0.0293893 0.0404508 -0.25
      vertex 0.0293893 -0.0404508 -0.25
    endloop
  endfacet
  facet normal 0 0 -1
    outer loop
      vertex 0.0267913 -0.0422164 -0.25
      vertex 0.0267913 0.0422164 -0.25
      vertex 0.0293893 0.0404508 -0.25
    endloop
  endfacet
  facet normal 0 0 -1
    outer loop
      vertex 0.0240877 -0.0438153 -0.25
      vertex 0.0267913 0.0422164 -0.25
      vertex 0.0267913 -0.0422164 -0.25
    endloop
  endfacet
  facet normal 0 0 -1
    outer loop
      vertex 0.0240877 -0.0438153 -0.25
      vertex 0.0240877 0.0438153 -0.25
      vertex 0.0267913 0.0422164 -0.25
    endloop
  endfacet
  facet normal 0 0 -1
    outer loop
      vertex 0.021289 -0.0452414 -0.25
      vertex 0.0240877 0.0438153 -0.25
      vertex 0.0240877 -0.0438153 -0.25
    endloop
  endfacet
  facet normal 0 0 -1
    outer loop
      vertex 0.021289 -0.0452414 -0.25
      vertex 0.021289 0.0452414 -0.25
      vertex 0.0240877 0.0438153 -0.25
    endloop
  endfacet
  facet normal 0 0 -1
    outer loop
      vertex 0.0184062 -0.0464888 -0.25
      vertex 0.021289 0.0452414 -0.25
      vertex 0.021289 -0.0452414 -0.25
    endloop
  endfacet
  facet normal 0 0 -1
    outer loop
      vertex 0.0184062 -0.0464888 -0.25
      vertex 0.0184062 0.0464888 -0.25
      vertex 0.021289 0.0452414 -0.25
    endloop
  endfacet
  facet normal 0 0 -1
    outer loop
      vertex 0.0154509 -0.0475528 -0.25
      vertex 0.0184062 0.0464888 -0.25
      vertex 0.0184062 -0.0464888 -0.25
    endloop
  endfacet
  facet normal 0 0 -1
    outer loop
      vertex 0.0154509 -0.0475528 -0.25
      vertex 0.0154509 0.0475528 -0.25
      vertex 0.0184062 0.0464888 -0.25
    endloop
  endfacet
  facet normal 0 0 -1
    outer loop
      vertex 0.0124345 -0.0484292 -0.25
      vertex 0.0154509 0.0475528 -0.25
      vertex 0.0154509 -0.0475528 -0.25
    endloop
  endfacet
  facet normal 0 0 -1
    outer loop
      vertex 0.0124345 -0.0484292 -0.25
      vertex 0.0124345 0.0484292 -0.25
      vertex 0.0154509 0.0475528 -0.25
    endloop
  endfacet
  facet normal 0 0 -1
    outer loop
      vertex 0.00936907 -0.0491144 -0.25
      vertex 0.0124345 0.0484292 -0.25
      vertex 0.0124345 -0.0484292 -0.25
    endloop
  endfacet
  facet normal 0 0 -1
    outer loop
      vertex 0.00936907 -0.0491144 -0.25
      vertex 0.00936907 0.0491144 -0.25
      vertex 0.0124345 0.0484292 -0.25
    endloop
  endfacet
  facet normal 0 0 -1
    outer loop
      vertex 0.00626666 -0.0496057 -0.25
      vertex 0.00936907 0.0491144 -0.25
      vertex 0.00936907 -0.0491144 -0.25
    endloop
  endfacet
  facet normal 0 0 -1
    outer loop
      vertex 0.00626666 -0.0496057 -0.25
      vertex 0.00626666 0.0496057 -0.25
      vertex 0.00936907 0.0491144 -0.25
    endloop
  endfacet
  facet normal 0 0 -1
    outer loop
      vertex 0.00313953 -0.0499013 -0.25
      vertex 0.00626666 0.0496057 -0.25
      vertex 0.00626666 -0.0496057 -0.25
    endloop
  endfacet
  facet normal 0 0 -1
    outer loop
      vertex 0.00313953 -0.0499013 -0.25
      vertex 0.00313953 0.0499013 -0.25
      vertex 0.00626666 0.0496057 -0.25
    endloop
  endfacet
  facet normal 0 0 -1
    outer loop
      vertex 0.00313953 -0.0499013 -0.25
      vertex 3.06162e-18 0.05 -0.25
      vertex 0.00313953 0.0499013 -0.25
    endloop
  endfacet
  facet normal 0 0 -1
    outer loop
      vertex -9.18485e-18 -0.05 -0.25
      vertex 3.06162e-18 0.05 -0.25
      vertex 0.00313953 -0.0499013 -0.25
    endloop
  endfacet
  facet normal 0 0 -1
    outer loop
      vertex -0.00313953 -0.0499013 -0.25
      vertex 3.06162e-18 0.05 -0.25
      vertex -9.18485e-18 -0.05 -0.25
    endloop
  endfacet
  facet normal 0 0 -1
    outer loop
      vertex -0.00313953 -0.0499013 -0.25
      vertex -0.00313953 0.0499013 -0.25
      vertex 3.06162e-18 0.05 -0.25
    endloop
  endfacet
  facet normal 0 0 -1
    outer loop
      vertex -0.00626666 -0.0496057 -0.25
      vertex -0.00313953 0.0499013 -0.25
      vertex -0.00313953 -0.0499013 -0.25
    endloop
  endfacet
  facet normal 0 0 -1
    outer loop
      vertex -0.00626666 -0.0496057 -0.25
      vertex -0.00626666 0.0496057 -0.25
      vertex -0.00313953 0.0499013 -0.25
    endloop
  endfacet
  facet normal 0 0 -1
    outer loop
      vertex -0.00936907 -0.0491144 -0.25
      vertex -0.00626666 0.0496057 -0.25
      vertex -0.00626666 -0.0496057 -0.25
    endloop
  endfacet
  facet normal 0 0 -1
    outer loop
      vertex -0.00936907 -0.0491144 -0.25
      vertex -0.00936907 0.0491144 -0.25
      vertex -0.00626666 0.0496057 -0.25
    endloop
  endfacet
  facet normal 0 0 -1
    outer loop
      vertex -0.0124345 -0.0484292 -0.25
      vertex -0.00936907 0.0491144 -0.25
      vertex -0.00936907 -0.0491144 -0.25
    endloop
  endfacet
  facet normal 0 0 -1
    outer loop
      vertex -0.0124345 -0.0484292 -0.25
      vertex -0.0124345 0.0484292 -0.25
      vertex -0.00936907 0.0491144 -0.25
    endloop
  endfacet
  facet normal 0 0 -1
    outer loop
      vertex -0.0154509 -0.0475528 -0.25
      vertex -0.0124345 0.0484292 -0.25
      vertex -0.0124345 -0.0484292 -0.25
    endloop
  endfacet
  facet normal 0 0 -1
    outer loop
      vertex -0.0154509 -0.0475528 -0.25
      vertex -0.0154509 0.0475528 -0.25
      vertex -0.0124345 0.0484292 -0.25
    endloop
  endfacet
  facet normal 0 0 -1
    outer loop
      vertex -0.0184062 -0.0464888 -0.25
      vertex -0.0154509 0.0475528 -0.25
      vertex -0.0154509 -0.0475528 -0.25
    endloop
  endfacet
  facet normal 0 0 -1
    outer loop
      vertex -0.0184062 -0.0464888 -0.25
      vertex -0.0184062 0.0464888 -0.25
      vertex -0.0154509 0.0475528 -0.25
    endloop
  endfacet
  facet normal 0 0 -1
    outer loop
      vertex -0.021289 -0.0452414 -0.25
      vertex -0.0184062 0.0464888 -0.25
      vertex -0.0184062 -0.0464888 -0.25
    endloop
  endfacet
  facet normal 0 0 -1
    outer loop
      vertex -0.021289 -0.0452414 -0.25
      vertex -0.021289 0.0452414 -0.25
      vertex -0.0184062 0.0464888 -0.25
    endloop
  endfacet
  facet normal 0 0 -1
    outer loop
      vertex -0.0240877 -0.0438153 -0.25
      vertex -0.021289 0.0452414 -0.25
      vertex -0.021289 -0.0452414 -0.25
    endloop
  endfacet
  facet normal 0 0 -1
    outer loop
      vertex -0.0240877 -0.0438153 -0.25
      vertex -0.0240877 0.0438153 -0.25
      vertex -0.021289 0.0452414 -0.25
    endloop
  endfacet
  facet normal 0 0 -1
    outer loop
      vertex -0.0267913 -0.0422164 -0.25
      vertex -0.0240877 0.0438153 -0.25
      vertex -0.0240877 -0.0438153 -0.25
    endloop
  endfacet
  facet normal 0 0 -1
    outer loop
      vertex -0.0267913 -0.0422164 -0.25
      vertex -0.0267913 0.0422164 -0.25
      vertex -0.0240877 0.0438153 -0.25
    endloop
  endfacet
  facet normal 0 0 -1
    outer loop
      vertex -0.0293893 -0.0404508 -0.25
      vertex -0.0267913 0.0422164 -0.25
      vertex -0.0267913 -0.0422164 -0.25
    endloop
  endfacet
  facet normal 0 0 -1
    outer loop
      vertex -0.0293893 -0.0404508 -0.25
      vertex -0.0293893 0.0404508 -0.25
      vertex -0.0267913 0.0422164 -0.25
    endloop
  endfacet
  facet normal 0 0 -1
    outer loop
      vertex -0.0318712 -0.0385257 -0.25
      vertex -0.0293893 0.0404508 -0.25
      vertex -0.0293893 -0.0404508 -0.25
    endloop
  endfacet
  facet normal 0 0 -1
    outer loop
      vertex -0.0318712 -0.0385257 -0.25
      vertex -0.0318712 0.0385257 -0.25
      vertex -0.0293893 0.0404508 -0.25
    endloop
  endfacet
  facet normal 0 0 -1
    outer loop
      vertex -0.0342274 -0.0364484 -0.25
      vertex -0.0318712 0.0385257 -0.25
      vertex -0.0318712 -0.0385257 -0.25
    endloop
  endfacet
  facet normal 0 0 -1
    outer loop
      vertex -0.0342274 -0.0364484 -0.25
      vertex -0.0342274 0.0364484 -0.25
      vertex -0.0318712 0.0385257 -0.25
    endloop
  endfacet
  facet normal 0 0 -1
    outer loop
      vertex -0.0364484 -0.0342274 -0.25
      vertex -0.0342274 0.0364484 -0.25
      vertex -0.0342274 -0.0364484 -0.25
    endloop
  endfacet
  facet normal 0 0 -1
    outer loop
      vertex -0.0364484 -0.0342274 -0.25
      vertex -0.0364484 0.0342274 -0.25
      vertex -0.0342274 0.0364484 -0.25
    endloop
  endfacet
  facet normal 0 0 -1
    outer loop
      vertex -0.0385257 -0.0318712 -0.25
      vertex -0.0364484 0.0342274 -0.25
      vertex -0.0364484 -0.0342274 -0.25
    endloop
  endfacet
  facet normal 0 0 -1
    outer loop
      vertex -0.0385257 -0.0318712 -0.25
      vertex -0.0385257 0.0318712 -0.25
      vertex -0.0364484 0.0342274 -0.25
    endloop
  endfacet
  facet normal 0 0 -1
    outer loop
      vertex -0.0404508 -0.0293893 -0.25
      vertex -0.0385257 0.0318712 -0.25
      vertex -0.0385257 -0.0318712 -0.25
    endloop
  endfacet
  facet normal 0 0 -1
    outer loop
      vertex -0.0404508 -0.0293893 -0.25
      vertex -0.0404508 0.0293893 -0.25
      vertex -0.0385257 0.0318712 -0.25
    endloop
  endfacet
  facet normal 0 0 -1
    outer loop
      vertex -0.0422164 -0.0267913 -0.25
      vertex -0.0404508 0.0293893 -0.25
      vertex -0.0404508 -0.0293893 -0.25
    endloop
  endfacet
  facet normal 0 0 -1
    outer loop
      vertex -0.0422164 -0.0267913 -0.25
      vertex -0.0422164 0.0267913 -0.25
      vertex -0.0404508 0.0293893 -0.25
    endloop
  endfacet
  facet normal 0 0 -1
    outer loop
      vertex -0.0438153 -0.0240877 -0.25
      vertex -0.0422164 0.0267913 -0.25
      vertex -0.0422164 -0.0267913 -0.25
    endloop
  endfacet
  facet normal 0 0 -1
    outer loop
      vertex -0.0438153 -0.0240877 -0.25
      vertex -0.0438153 0.0240877 -0.25
      vertex -0.0422164 0.0267913 -0.25
    endloop
  endfacet
  facet normal 0 0 -1
    outer loop
      vertex -0.0452414 -0.021289 -0.25
      vertex -0.0438153 0.0240877 -0.25
      vertex -0.0438153 -0.0240877 -0.25
    endloop
  endfacet
  facet normal 0 0 -1
    outer loop
      vertex -0.0452414 -0.021289 -0.25
      vertex -0.0452414 0.021289 -0.25
      vertex -0.0438153 0.0240877 -0.25
    endloop
  endfacet
  facet normal 0 0 -1
    outer loop
      vertex -0.0464888 -0.0184062 -0.25
      vertex -0.0452414 0.021289 -0.25
      vertex -0.0452414 -0.021289 -0.25
    endloop
  endfacet
  facet normal 0 0 -1
    outer loop
      vertex -0.0464888 -0.0184062 -0.25
      vertex -0.0464888 0.0184062 -0.25
      vertex -0.0452414 0.021289 -0.25
    endloop
  endfacet
  facet normal 0 0 -1
    outer loop
      vertex -0.0475528 -0.0154509 -0.25
      vertex -0.0464888 0.0184062 -0.25
      vertex -0.0464888 -0.0184062 -0.25
    endloop
  endfacet
  facet normal 0 0 -1
    outer loop
      vertex -0.0475528 -0.0154509 -0.25
      vertex -0.0475528 0.0154509 -0.25
      vertex -0.0464888 0.0184062 -0.25
    endloop
  endfacet
  facet normal 0 0 -1
    outer loop
      vertex -0.0484292 -0.0124345 -0.25
      vertex -0.0475528 0.0154509 -0.25
      vertex -0.0475528 -0.0154509 -0.25
    endloop
  endfacet
  facet normal 0 0 -1
    outer loop
      vertex -0.0484292 -0.0124345 -0.25
      vertex -0.0484292 0.0124345 -0.25
      vertex -0.0475528 0.0154509 -0.25
    endloop
  endfacet
  facet normal 0 0 -1
    outer loop
      vertex -0.0491144 -0.00936907 -0.25
      vertex -0.0484292 0.0124345 -0.25
      vertex -0.0484292 -0.0124345 -0.25
    endloop
  endfacet
  facet normal 0 0 -1
    outer loop
      vertex -0.0491144 -0.00936907 -0.25
      vertex -0.0491144 0.00936907 -0.25
      vertex -0.0484292 0.0124345 -0.25
    endloop
  endfacet
  facet normal 0 0 -1
    outer loop
      vertex -0.0496057 -0.00626666 -0.25
      vertex -0.0491144 0.00936907 -0.25
      vertex -0.0491144 -0.00936907 -0.25
    endloop
  endfacet
  facet normal 0 0 -1
    outer loop
      vertex -0.0496057 -0.00626666 -0.25
      vertex -0.0496057 0.00626666 -0.25
      vertex -0.0491144 0.00936907 -0.25
    endloop
  endfacet
  facet normal 0 0 -1
    outer loop
      vertex -0.0499013 -0.00313953 -0.25
      vertex -0.0496057 0.00626666 -0.25
      vertex -0.0496057 -0.00626666 -0.25
    endloop
  endfacet
  facet normal 0 0 -1
    outer loop
      vertex -0.0499013 -0.00313953 -0.25
      vertex -0.0499013 0.00313953 -0.25
      vertex -0.0496057 0.00626666 -0.25
    endloop
  endfacet
  facet normal 0 -0 -1
    outer loop
      vertex -0.0499013 0.00313953 -0.25
      vertex -0.0499013 -0.00313953 -0.25
      vertex -0.05 6.12323e-18 -0.25
    endloop
  endfacet
  facet normal 0 0 1
    outer loop
      vertex 0.0499013 0.00313953 0.25
      vertex 0.0499013 -0.00313953 0.25
      vertex 0.05 0 0.25
    endloop
  endfacet
  facet normal 0 0 1
    outer loop
      vertex 0.0496057 0.00626666 0.25
      vertex 0.0499013 -0.00313953 0.25
      vertex 0.0499013 0.00313953 0.25
    endloop
  endfacet
  facet normal 0 0 1
    outer loop
      vertex 0.0496057 0.00626666 0.25
      vertex 0.0496057 -0.00626666 0.25
      vertex 0.0499013 -0.00313953 0.25
    endloop
  endfacet
  facet normal 0 0 1
    outer loop
      vertex 0.0491144 0.00936907 0.25
      vertex 0.0496057 -0.00626666 0.25
      vertex 0.0496057 0.00626666 0.25
    endloop
  endfacet
  facet normal 0 0 1
    outer loop
      vertex 0.0491144 0.00936907 0.25
      vertex 0.0491144 -0.00936907 0.25
      vertex 0.0496057 -0.00626666 0.25
    endloop
  endfacet
  facet normal 0 0 1
    outer loop
      vertex 0.0484292 0.0124345 0.25
      vertex 0.0491144 -0.00936907 0.25
      vertex 0.0491144 0.00936907 0.25
    endloop
  endfacet
  facet normal 0 0 1
    outer loop
      vertex 0.0484292 0.0124345 0.25
      vertex 0.0484292 -0.0124345 0.25
      vertex 0.0491144 -0.00936907 0.25
    endloop
  endfacet
  facet normal 0 0 1
    outer loop
      vertex 0.0475528 0.0154509 0.25
      vertex 0.0484292 -0.0124345 0.25
      vertex 0.0484292 0.0124345 0.25
    endloop
  endfacet
  facet normal 0 0 1
    outer loop
      vertex 0.0475528 0.0154509 0.25
      vertex 0.0475528 -0.0154509 0.25
      vertex 0.0484292 -0.0124345 0.25
    endloop
  endfacet
  facet normal 0 0 1
    outer loop
      vertex 0.0464888 0.0184062 0.25
      vertex 0.0475528 -0.0154509 0.25
      vertex 0.0475528 0.0154509 0.25
    endloop
  endfacet
  facet normal 0 0 1
    outer loop
      vertex 0.0464888 0.0184062 0.25
      vertex 0.0464888 -0.0184062 0.25
      vertex 0.0475528 -0.0154509 0.25
    endloop
  endfacet
  facet normal 0 0 1
    outer loop
      vertex 0.0452414 0.021289 0.25
      vertex 0.0464888 -0.0184062 0.25
      vertex 0.0464888 0.0184062 0.25
    endloop
  endfacet
  facet normal 0 0 1
    outer loop
      vertex 0.0452414 0.021289 0.25
      vertex 0.0452414 -0.021289 0.25
      vertex 0.0464888 -0.0184062 0.25
    endloop
  endfacet
  facet normal 0 0 1
    outer loop
      vertex 0.0438153 0.0240877 0.25
      vertex 0.0452414 -0.021289 0.25
      vertex 0.0452414 0.021289 0.25
    endloop
  endfacet
  facet normal 0 0 1
    outer loop
      vertex 0.0438153 0.0240877 0.25
      vertex 0.0438153 -0.0240877 0.25
      vertex 0.0452414 -0.021289 0.25
    endloop
  endfacet
  facet normal 0 0 1
    outer loop
      vertex 0.0422164 0.0267913 0.25
      vertex 0.0438153 -0.0240877 0.25
      vertex 0.0438153 0.0240877 0.25
    endloop
  endfacet
  facet normal 0 0 1
    outer loop
      vertex 0.0422164 0.0267913 0.25
      vertex 0.0422164 -0.0267913 0.25
      vertex 0.0438153 -0.0240877 0.25
    endloop
  endfacet
  facet normal 0 0 1
    outer loop
      vertex 0.0404508 0.0293893 0.25
      vertex 0.0422164 -0.0267913 0.25
      vertex 0.0422164 0.0267913 0.25
    endloop
  endfacet
  facet normal 0 0 1
    outer loop
      vertex 0.0404508 0.0293893 0.25
      vertex 0.0404508 -0.0293893 0.25
      vertex 0.0422164 -0.0267913 0.25
    endloop
  endfacet
  facet normal 0 0 1
    outer loop
      vertex 0.0385257 0.0318712 0.25
      vertex 0.0404508 -0.0293893 0.25
      vertex 0.0404508 0.0293893 0.25
    endloop
  endfacet
  facet normal 0 0 1
    outer loop
      vertex 0.0385257 0.0318712 0.25
      vertex 0.0385257 -0.0318712 0.25
      vertex 0.0404508 -0.0293893 0.25
    endloop
  endfacet
  facet normal 0 0 1
    outer loop
      vertex 0.0364484 0.0342274 0.25
      vertex 0.0385257 -0.0318712 0.25
      vertex 0.0385257 0.0318712 0.25
    endloop
  endfacet
  facet normal 0 0 1
    outer loop
      vertex 0.0364484 0.0342274 0.25
      vertex 0.0364484 -0.0342274 0.25
      vertex 0.0385257 -0.0318712 0.25
    endloop
  endfacet
  facet normal 0 0 1
    outer loop
      vertex 0.0342274 0.0364484 0.25
      vertex 0.0364484 -0.0342274 0.25
      vertex 0.0364484 0.0342274 0.25
    endloop
  endfacet
  facet normal 0 0 1
    outer loop
      vertex 0.0342274 0.0364484 0.25
      vertex 0.0342274 -0.0364484 0.25
      vertex 0.0364484 -0.0342274 0.25
    endloop
  endfacet
  facet normal 0 0 1
    outer loop
      vertex 0.0318712 0.0385257 0.25
      vertex 0.0342274 -0.0364484 0.25
      vertex 0.0342274 0.0364484 0.25
    endloop
  endfacet
  facet normal 0 0 1
    outer loop
      vertex 0.0318712 0.0385257 0.25
      vertex 0.0318712 -0.0385257 0.25
      vertex 0.0342274 -0.0364484 0.25
    endloop
  endfacet
  facet normal 0 0 1
    outer loop
      vertex 0.0293893 0.0404508 0.25
      vertex 0.0318712 -0.0385257 0.25
      vertex 0.0318712 0.0385257 0.25
    endloop
  endfacet
  facet normal 0 0 1
    outer loop
      vertex 0.0293893 0.0404508 0.25
      vertex 0.0293893 -0.0404508 0.25
      vertex 0.0318712 -0.0385257 0.25
    endloop
  endfacet
  facet normal 0 0 1
    outer loop
      vertex 0.0267913 0.0422164 0.25
      vertex 0.0293893 -0.0404508 0.25
      vertex 0.0293893 0.0404508 0.25
    endloop
  endfacet
  facet normal 0 0 1
    outer loop
      vertex 0.0267913 0.0422164 0.25
      vertex 0.0267913 -0.0422164 0.25
      vertex 0.0293893 -0.0404508 0.25
    endloop
  endfacet
  facet normal 0 0 1
    outer loop
      vertex 0.0240877 0.0438153 0.25
      vertex 0.0267913 -0.0422164 0.25
      vertex 0.0267913 0.0422164 0.25
    endloop
  endfacet
  facet normal 0 0 1
    outer loop
      vertex 0.0240877 0.0438153 0.25
      vertex 0.0240877 -0.0438153 0.25
      vertex 0.0267913 -0.0422164 0.25
    endloop
  endfacet
  facet normal 0 0 1
    outer loop
      vertex 0.021289 0.0452414 0.25
      vertex 0.0240877 -0.0438153 0.25
      vertex 0.0240877 0.0438153 0.25
    endloop
  endfacet
  facet normal 0 0 1
    outer loop
      vertex 0.021289 0.0452414 0.25
      vertex 0.021289 -0.0452414 0.25
      vertex 0.0240877 -0.0438153 0.25
    endloop
  endfacet
  facet normal 0 0 1
    outer loop
      vertex 0.0184062 0.0464888 0.25
      vertex 0.021289 -0.0452414 0.25
      vertex 0.021289 0.0452414 0.25
    endloop
  endfacet
  facet normal 0 0 1
    outer loop
      vertex 0.0184062 0.0464888 0.25
      vertex 0.0184062 -0.0464888 0.25
      vertex 0.021289 -0.0452414 0.25
    endloop
  endfacet
  facet normal 0 0 1
    outer loop
      vertex 0.0154509 0.0475528 0.25
      vertex 0.0184062 -0.0464888 0.25
      vertex 0.0184062 0.0464888 0.25
    endloop
  endfacet
  facet normal 0 0 1
    outer loop
      vertex 0.0154509 0.0475528 0.25
      vertex 0.0154509 -0.0475528 0.25
      vertex 0.0184062 -0.0464888 0.25
    endloop
  endfacet
  facet normal 0 0 1
    outer loop
      vertex 0.0124345 0.0484292 0.25
      vertex 0.0154509 -0.0475528 0.25
      vertex 0.0154509 0.0475528 0.25
    endloop
  endfacet
  facet normal 0 0 1
    outer loop
      vertex 0.0124345 0.0484292 0.25
      vertex 0.0124345 -0.0484292 0.25
      vertex 0.0154509 -0.0475528 0.25
    endloop
  endfacet
  facet normal 0 0 1
    outer loop
      vertex 0.00936907 0.0491144 0.25
      vertex 0.0124345 -0.0484292 0.25
      vertex 0.0124345 0.0484292 0.25
    endloop
  endfacet
  facet normal 0 0 1
    outer loop
      vertex 0.00936907 0.0491144 0.25
      vertex 0.00936907 -0.0491144 0.25
      vertex 0.0124345 -0.0484292 0.25
    endloop
  endfacet
  facet normal 0 0 1
    outer loop
      vertex 0.00626666 0.0496057 0.25
      vertex 0.00936907 -0.0491144 0.25
      vertex 0.00936907 0.0491144 0.25
    endloop
  endfacet
  facet normal 0 0 1
    outer loop
      vertex 0.00626666 0.0496057 0.25
      vertex 0.00626666 -0.0496057 0.25
      vertex 0.00936907 -0.0491144 0.25
    endloop
  endfacet
  facet normal 0 0 1
    outer loop
      vertex 0.00313953 0.0499013 0.25
      vertex 0.00626666 -0.0496057 0.25
      vertex 0.00626666 0.0496057 0.25
    endloop
  endfacet
  facet normal 0 0 1
    outer loop
      vertex 0.00313953 0.0499013 0.25
      vertex 0.00313953 -0.0499013 0.25
      vertex 0.00626666 -0.0496057 0.25
    endloop
  endfacet
  facet normal 0 0 1
    outer loop
      vertex 3.06162e-18 0.05 0.25
      vertex 0.00313953 -0.0499013 0.25
      vertex 0.00313953 0.0499013 0.25
    endloop
  endfacet
  facet normal 0 0 1
    outer loop
      vertex 3.06162e-18 0.05 0.25
      vertex -9.18485e-18 -0.05 0.25
      vertex 0.00313953 -0.0499013 0.25
    endloop
  endfacet
  facet normal -0 0 1
    outer loop
      vertex -0.00313953 0.0499013 0.25
      vertex -9.18485e-18 -0.05 0.25
      vertex 3.06162e-18 0.05 0.25
    endloop
  endfacet
  facet normal 0 0 1
    outer loop
      vertex -0.00313953 0.0499013 0.25
      vertex -0.00313953 -0.0499013 0.25
      vertex -9.18485e-18 -0.05 0.25
    endloop
  endfacet
  facet normal -0 0 1
    outer loop
      vertex -0.00626666 0.0496057 0.25
      vertex -0.00313953 -0.0499013 0.25
      vertex -0.00313953 0.0499013 0.25
    endloop
  endfacet
  facet normal 0 0 1
    outer loop
      vertex -0.00626666 0.0496057 0.25
      vertex -0.00626666 -0.0496057 0.25
      vertex -0.00313953 -0.0499013 0.25
    endloop
  endfacet
  facet normal -0 0 1
    outer loop
      vertex -0.00936907 0.0491144 0.25
      vertex -0.00626666 -0.0496057 0.25
      vertex -0.00626666 0.0496057 0.25
    endloop
  endfacet
  facet normal 0 0 1
    outer loop
      vertex -0.00936907 0.0491144 0.25
      vertex -0.00936907 -0.0491144 0.25
      vertex -0.00626666 -0.0496057 0.25
    endloop
  endfacet
  facet normal -0 0 1
    outer loop
      vertex -0.0124345 0.0484292 0.25
      vertex -0.00936907 -0.0491144 0.25
      vertex -0.00936907 0.0491144 0.25
    endloop
  endfacet
  facet normal 0 0 1
    outer loop
      vertex -0.0124345 0.0484292 0.25
      vertex -0.0124345 -0.0484292 0.25
      vertex -0.00936907 -0.0491144 0.25
    endloop
  endfacet
  facet normal -0 0 1
    outer loop
      vertex -0.0154509 0.0475528 0.25
      vertex -0.0124345 -0.0484292 0.25
      vertex -0.0124345 0.0484292 0.25
    endloop
  endfacet
  facet normal 0 0 1
    outer loop
      vertex -0.0154509 0.0475528 0.25
      vertex -0.0154509 -0.0475528 0.25
      vertex -0.0124345 -0.0484292 0.25
    endloop
  endfacet
  facet normal -0 0 1
    outer loop
      vertex -0.0184062 0.0464888 0.25
      vertex -0.0154509 -0.0475528 0.25
      vertex -0.0154509 0.0475528 0.25
    endloop
  endfacet
  facet normal 0 0 1
    outer loop
      vertex -0.0184062 0.0464888 0.25
      vertex -0.0184062 -0.0464888 0.25
      vertex -0.0154509 -0.0475528 0.25
    endloop
  endfacet
  facet normal -0 0 1
    outer loop
      vertex -0.021289 0.0452414 0.25
      vertex -0.0184062 -0.0464888 0.25
      vertex -0.0184062 0.0464888 0.25
    endloop
  endfacet
  facet normal 0 0 1
    outer loop
      vertex -0.021289 0.0452414 0.25
      vertex -0.021289 -0.0452414 0.25
      vertex -0.0184062 -0.0464888 0.25
    endloop
  endfacet
  facet normal -0 0 1
    outer loop
      vertex -0.0240877 0.0438153 0.25
      vertex -0.021289 -0.0452414 0.25
      vertex -0.021289 0.0452414 0.25
    endloop
  endfacet
  facet normal 0 0 1
    outer loop
      vertex -0.0240877 0.0438153 0.25
      vertex -0.0240877 -0.0438153 0.25
      vertex -0.021289 -0.0452414 0.25
    endloop
  endfacet
  facet normal -0 0 1
    outer loop
      vertex -0.0267913 0.0422164 0.25
      vertex -0.0240877 -0.0438153 0.25
      vertex -0.0240877 0.0438153 0.25
    endloop
  endfacet
  facet normal 0 0 1
    outer loop
      vertex -0.0267913 0.0422164 0.25
      vertex -0.0267913 -0.0422164 0.25
      vertex -0.0240877 -0.0438153 0.25
    endloop
  endfacet
  facet normal -0 0 1
    outer loop
      vertex -0.0293893 0.0404508 0.25
      vertex -0.0267913 -0.0422164 0.25
      vertex -0.0267913 0.0422164 0.25
    endloop
  endfacet
  facet normal 0 0 1
    outer loop
      vertex -0.0293893 0.0404508 0.25
      vertex -0.0293893 -0.0404508 0.25
      vertex -0.0267913 -0.0422164 0.25
    endloop
  endfacet
  facet normal -0 0 1
    outer loop
      vertex -0.0318712 0.0385257 0.25
      vertex -0.0293893 -0.0404508 0.25
      vertex -0.0293893 0.0404508 0.25
    endloop
  endfacet
  facet normal 0 0 1
    outer loop
      vertex -0.0318712 0.0385257 0.25
      vertex -0.0318712 -0.0385257 0.25
      vertex -0.0293893 -0.0404508 0.25
    endloop
  endfacet
  facet normal -0 0 1
    outer loop
      vertex -0.0342274 0.0364484 0.25
      vertex -0.0318712 -0.0385257 0.25
      vertex -0.0318712 0.0385257 0.25
    endloop
  endfacet
  facet normal 0 0 1
    outer loop
      vertex -0.0342274 0.0364484 0.25
      vertex -0.0342274 -0.0364484 0.25
      vertex -0.0318712 -0.0385257 0.25
    endloop
  endfacet
  facet normal -0 0 1
    outer loop
      vertex -0.0364484 0.0342274 0.25
      vertex -0.0342274 -0.0364484 0.25
      vertex -0.0342274 0.0364484 0.25
    endloop
  endfacet
  facet normal 0 0 1
    outer loop
      vertex -0.0364484 0.0342274 0.25
      vertex -0.0364484 -0.0342274 0.25
      vertex -0.0342274 -0.0364484 0.25
    endloop
  endfacet
  facet normal -0 0 1
    outer loop
      vertex -0.0385257 0.0318712 0.25
      vertex -0.0364484 -0.0342274 0.25
      vertex -0.0364484 0.0342274 0.25
    endloop
  endfacet
  facet normal 0 0 1
    outer loop
      vertex -0.0385257 0.0318712 0.25
      vertex -0.0385257 -0.0318712 0.25
      vertex -0.0364484 -0.0342274 0.25
    endloop
  endfacet
  facet normal -0 0 1
    outer loop
      vertex -0.0404508 0.0293893 0.25
      vertex -0.0385257 -0.0318712 0.25
      vertex -0.0385257 0.0318712 0.25
    endloop
  endfacet
  facet normal 0 0 1
    outer loop
      vertex -0.0404508 0.0293893 0.25
      vertex -0.0404508 -0.0293893 0.25
      vertex -0.0385257 -0.0318712 0.25
    endloop
  endfacet
  facet normal -0 0 1
    outer loop
      vertex -0.0422164 0.0267913 0.25
      vertex -0.0404508 -0.0293893 0.25
      vertex -0.0404508 0.0293893 0.25
    endloop
  endfacet
  facet normal 0 0 1
    outer loop
      vertex -0.0422164 0.0267913 0.25
      vertex -0.0422164 -0.0267913 0.25
      vertex -0.0404508 -0.0293893 0.25
    endloop
  endfacet
  facet normal -0 0 1
    outer loop
      vertex -0.0438153 0.0240877 0.25
      vertex -0.0422164 -0.0267913 0.25
      vertex -0.0422164 0.0267913 0.25
    endloop
  endfacet
  facet normal 0 0 1
    outer loop
      vertex -0.0438153 0.0240877 0.25
      vertex -0.0438153 -0.0240877 0.25
      vertex -0.0422164 -0.0267913 0.25
    endloop
  endfacet
  facet normal -0 0 1
    outer loop
      vertex -0.0452414 0.021289 0.25
      vertex -0.0438153 -0.0240877 0.25
      vertex -0.0438153 0.0240877 0.25
    endloop
  endfacet
  facet normal 0 0 1
    outer loop
      vertex -0.0452414 0.021289 0.25
      vertex -0.0452414 -0.021289 0.25
      vertex -0.0438153 -0.0240877 0.25
    endloop
  endfacet
  facet normal -0 0 1
    outer loop
      vertex -0.0464888 0.0184062 0.25
      vertex -0.0452414 -0.021289 0.25
      vertex -0.0452414 0.021289 0.25
    endloop
  endfacet
  facet normal 0 0 1
    outer loop
      vertex -0.0464888 0.0184062 0.25
      vertex -0.0464888 -0.0184062 0.25
      vertex -0.0452414 -0.021289 0.25
    endloop
  endfacet
  facet normal -0 0 1
    outer loop
      vertex -0.0475528 0.0154509 0.25
      vertex -0.0464888 -0.0184062 0.25
      vertex -0.0464888 0.0184062 0.25
    endloop
  endfacet
  facet normal 0 0 1
    outer loop
      vertex -0.0475528 0.0154509 0.25
      vertex -0.0475528 -0.0154509 0.25
      vertex -0.0464888 -0.0184062 0.25
    endloop
  endfacet
  facet normal -0 0 1
    outer loop
      vertex -0.0484292 0.0124345 0.25
      vertex -0.0475528 -0.0154509 0.25
      vertex -0.0475528 0.0154509 0.25
    endloop
  endfacet
  facet normal 0 0 1
    outer loop
      vertex -0.0484292 0.0124345 0.25
      vertex -0.0484292 -0.0124345 0.25
      vertex -0.0475528 -0.0154509 0.25
    endloop
  endfacet
  facet normal -0 0 1
    outer loop
      vertex -0.0491144 0.00936907 0.25
      vertex -0.0484292 -0.0124345 0.25
      vertex -0.0484292 0.0124345 0.25
    endloop
  endfacet
  facet normal 0 0 1
    outer loop
      vertex -0.0491144 0.00936907 0.25
      vertex -0.0491144 -0.00936907 0.25
      vertex -0.0484292 -0.0124345 0.25
    endloop
  endfacet
  facet normal -0 0 1
    outer loop
      vertex -0.0496057 0.00626666 0.25
      vertex -0.0491144 -0.00936907 0.25
      vertex -0.0491144 0.00936907 0.25
    endloop
  endfacet
  facet normal 0 0 1
    outer loop
      vertex -0.0496057 0.00626666 0.25
      vertex -0.0496057 -0.00626666 0.25
      vertex -0.0491144 -0.00936907 0.25
    endloop
  endfacet
  facet normal -0 0 1
    outer loop
      vertex -0.0499013 0.00313953 0.25
      vertex -0.0496057 -0.00626666 0.25
      vertex -0.0496057 0.00626666 0.25
    endloop
  endfacet
  facet normal 0 0 1
    outer loop
      vertex -0.0499013 0.00313953 0.25
      vertex -0.0499013 -0.00313953 0.25
      vertex -0.0496057 -0.00626666 0.25
    endloop
  endfacet
  facet normal 0 -0 1
    outer loop
      vertex -0.0499013 -0.00313953 0.25
      vertex -0.0499013 0.00313953 0.25
      vertex -0.05 6.12323e-18 0.25
    endloop
  endfacet
endsolid OpenSCAD_Model
